<svg xmlns="http://www.w3.org/2000/svg" xmlns:xlink="http://www.w3.org/1999/xlink" width="500" zoomAndPan="magnify" viewBox="0 0 375 374.999991" height="500" preserveAspectRatio="xMidYMid meet" version="1.0"><defs><g/><clipPath id="b22b0609ab"><path d="M 30 30 L 345 30 L 345 345 L 30 345 Z M 30 30 " clip-rule="nonzero"/></clipPath><clipPath id="c863bef5cb"><path d="M 67.898438 0 L 375 67.902344 L 307.097656 375 L 0 307.101562 Z M 67.898438 0 " clip-rule="nonzero"/></clipPath><clipPath id="f7fb85dd8e"><path d="M 221.449219 33.949219 C 136.644531 15.199219 52.699219 68.746094 33.949219 153.550781 C 15.199219 238.355469 68.746094 322.300781 153.550781 341.050781 C 238.351562 359.800781 322.300781 306.253906 341.050781 221.449219 C 359.800781 136.648438 306.253906 52.699219 221.449219 33.949219 Z M 221.449219 33.949219 " clip-rule="nonzero"/></clipPath><clipPath id="4d553f8b56"><path d="M 40 37 L 335 37 L 335 338 L 40 338 Z M 40 37 " clip-rule="nonzero"/></clipPath><clipPath id="772d0a806c"><path d="M 340.34375 332.242188 L 45.785156 342.832031 L 35.007812 43.027344 L 329.566406 32.4375 Z M 340.34375 332.242188 " clip-rule="nonzero"/></clipPath><clipPath id="9c4da8a75e"><path d="M 340.34375 332.242188 L 45.785156 342.832031 L 35.007812 43.027344 L 329.566406 32.4375 Z M 340.34375 332.242188 " clip-rule="nonzero"/></clipPath><clipPath id="58cc0cd675"><path d="M 48 48 L 327 48 L 327 327 L 48 327 Z M 48 48 " clip-rule="nonzero"/></clipPath><clipPath id="8bdcd0d236"><path d="M 33.0625 309.039062 L 65.960938 33.0625 L 341.9375 65.960938 L 309.039062 341.9375 Z M 33.0625 309.039062 " clip-rule="nonzero"/></clipPath><clipPath id="f2863a7344"><path d="M 49.511719 171.050781 C 40.425781 247.261719 94.839844 316.40625 171.050781 325.488281 C 247.261719 334.574219 316.40625 280.160156 325.488281 203.949219 C 334.574219 127.738281 280.160156 58.59375 203.949219 49.511719 C 127.738281 40.425781 58.59375 94.839844 49.511719 171.050781 Z M 49.511719 171.050781 " clip-rule="nonzero"/></clipPath></defs><g clip-path="url(#b22b0609ab)"><g clip-path="url(#c863bef5cb)"><g clip-path="url(#f7fb85dd8e)"><path fill="#fdf9f7" d="M 67.898438 0 L 375 67.902344 L 307.097656 375 L 0 307.101562 Z M 67.898438 0 " fill-opacity="1" fill-rule="nonzero"/></g></g></g><g clip-path="url(#4d553f8b56)"><g clip-path="url(#772d0a806c)"><g clip-path="url(#9c4da8a75e)"><path fill="#0b0019" d="M 334.347656 176.089844 C 335.625 201.261719 330.246094 225.105469 319.695312 247.835938 C 314.035156 260.023438 306.75 271.214844 298.128906 281.578125 C 284.804688 297.597656 268.980469 310.46875 250.585938 320.179688 C 237.28125 327.207031 223.207031 332.210938 208.390625 334.765625 C 200.148438 336.1875 191.789062 337.578125 183.371094 337.136719 C 177.6875 336.832031 171.996094 336.730469 166.300781 336.226562 C 150.414062 334.816406 135.523438 330.273438 121.179688 323.617188 C 110.535156 318.679688 100.847656 312.21875 91.75 304.808594 C 85.746094 299.914062 80.390625 294.40625 75.339844 288.566406 C 73.9375 286.949219 73.769531 284.996094 75.054688 283.976562 C 76.6875 282.683594 78.238281 283.070312 79.597656 284.527344 C 82.367188 287.480469 85.0625 290.488281 87.972656 293.3125 C 104.277344 309.183594 123.378906 320.160156 145.28125 326.265625 C 153.835938 328.644531 162.519531 330.191406 171.421875 330.757812 C 176.066406 331.054688 180.734375 331.382812 185.367188 331.378906 C 190.316406 331.375 195.285156 330.675781 200.214844 330.027344 C 209.785156 328.765625 219.175781 326.597656 228.28125 323.371094 C 243.742188 317.882812 257.96875 310.171875 270.84375 299.921875 C 278.300781 293.980469 285.300781 287.585938 291.511719 280.375 C 302.933594 267.121094 311.882812 252.335938 318.28125 236.027344 C 322.105469 226.28125 324.859375 216.257812 326.601562 205.9375 C 327.308594 201.765625 327.652344 197.566406 328.144531 193.378906 C 329.386719 182.816406 329.109375 172.222656 327.535156 161.820312 C 325.335938 147.289062 321.273438 133.183594 314.777344 119.867188 C 309.695312 109.449219 303.53125 99.75 296.042969 90.917969 C 287.226562 80.527344 277.09375 71.65625 265.527344 64.371094 C 250.511719 54.917969 234.328125 48.65625 216.855469 45.582031 C 205.265625 43.539062 193.585938 42.707031 181.902344 43.832031 C 160.660156 45.882812 140.605469 52.015625 122.09375 62.773438 C 110.054688 69.773438 99.214844 78.273438 89.457031 88.269531 C 75.71875 102.34375 65.296875 118.511719 57.753906 136.585938 C 52.265625 149.734375 48.816406 163.460938 47.363281 177.625 C 46.671875 184.324219 46.304688 191.089844 46.59375 197.839844 C 47.285156 213.859375 50.070312 229.472656 55.941406 244.464844 C 56.3125 245.40625 56.746094 246.34375 56.976562 247.316406 C 57.28125 248.597656 57.167969 250.042969 55.722656 250.394531 C 54.390625 250.722656 52.679688 251.601562 51.671875 249.535156 C 50.089844 246.300781 48.886719 242.917969 47.824219 239.511719 C 45.160156 230.992188 42.9375 222.351562 41.949219 213.445312 C 40.90625 204.105469 40.164062 194.695312 40.722656 185.339844 C 42.378906 157.644531 50.597656 131.960938 65.628906 108.554688 C 71.839844 98.894531 79.003906 89.945312 87.203125 81.921875 C 102.222656 67.230469 119.398438 55.75 139.019531 48.011719 C 148.390625 44.320312 158.023438 41.585938 167.890625 39.710938 C 178.261719 37.734375 188.816406 37.195312 199.292969 37.589844 C 217.878906 38.28125 235.75 42.644531 252.667969 50.496094 C 263.800781 55.664062 274.09375 62.191406 283.5 70.117188 C 306.488281 89.480469 321.632812 113.828125 329.570312 142.707031 C 331.070312 148.164062 332.066406 153.769531 333.097656 159.34375 C 334.105469 164.867188 334.097656 170.488281 334.347656 176.089844 Z M 334.347656 176.089844 " fill-opacity="1" fill-rule="nonzero"/></g></g></g><g clip-path="url(#58cc0cd675)"><g clip-path="url(#8bdcd0d236)"><g clip-path="url(#f2863a7344)"><path fill="#0b0019" d="M 33.0625 309.039062 L 65.960938 33.0625 L 341.9375 65.960938 L 309.039062 341.9375 Z M 33.0625 309.039062 " fill-opacity="1" fill-rule="nonzero"/></g></g></g><g fill="#fdf9f7" fill-opacity="1"><g transform="translate(104.938236, 189.849987)"><g><path d="M 18.796875 -1.5625 L 18.125 -1.484375 C 14.320312 -1.003906 10.597656 -0.753906 6.953125 -0.734375 C 5.148438 -0.648438 3.609375 -0.992188 2.328125 -1.765625 C 1.054688 -2.535156 0.144531 -3.828125 -0.40625 -5.640625 C -0.769531 -6.929688 -0.863281 -8.8125 -0.6875 -11.28125 C -0.507812 -13.757812 -0.21875 -16.75 0.1875 -20.25 C 0.75 -24.65625 1.226562 -29.707031 1.625 -35.40625 C 2.03125 -41.113281 2.101562 -47.101562 1.84375 -53.375 C 1.9375 -53.425781 2.285156 -53.488281 2.890625 -53.5625 C 3.503906 -53.632812 4.34375 -53.671875 5.40625 -53.671875 C 6.476562 -53.671875 7.65625 -53.445312 8.9375 -53 C 10.226562 -52.550781 11.472656 -51.515625 12.671875 -49.890625 C 15.703125 -53.148438 18.84375 -54.984375 22.09375 -55.390625 C 24.882812 -55.742188 27.523438 -55.394531 30.015625 -54.34375 C 32.503906 -53.289062 34.351562 -51.703125 35.5625 -49.578125 C 35.988281 -48.703125 36.316406 -47.847656 36.546875 -47.015625 C 37.160156 -45.117188 37.210938 -43.148438 36.703125 -41.109375 C 36.203125 -39.066406 35.035156 -37.125 33.203125 -35.28125 C 31.378906 -33.4375 28.445312 -31.539062 24.40625 -29.59375 C 30.820312 -28.4375 35.328125 -26.757812 37.921875 -24.5625 C 39.628906 -23.101562 40.742188 -21.503906 41.265625 -19.765625 C 41.515625 -18.941406 41.644531 -18.097656 41.65625 -17.234375 C 41.539062 -13.992188 40.425781 -11.3125 38.3125 -9.1875 C 36.207031 -7.070312 33.429688 -5.394531 29.984375 -4.15625 C 26.535156 -2.925781 22.804688 -2.0625 18.796875 -1.5625 Z M 19.140625 -9.484375 C 21.703125 -9.796875 24.035156 -10.492188 26.140625 -11.578125 C 28.242188 -12.671875 29.476562 -14.300781 29.84375 -16.46875 C 29.90625 -17.5625 29.785156 -18.578125 29.484375 -19.515625 C 29.078125 -20.847656 28.117188 -22.101562 26.609375 -23.28125 C 25.109375 -24.457031 23.050781 -25.296875 20.4375 -25.796875 C 17.820312 -26.304688 15.113281 -26.472656 12.3125 -26.296875 C 11.5 -20.441406 11.140625 -14.882812 11.234375 -9.625 C 13.910156 -9.195312 16.546875 -9.148438 19.140625 -9.484375 Z M 12.796875 -31 C 15.441406 -31.351562 17.617188 -31.898438 19.328125 -32.640625 C 21.046875 -33.378906 22.523438 -34.414062 23.765625 -35.75 C 25.015625 -37.09375 25.691406 -38.757812 25.796875 -40.75 C 25.804688 -41.695312 25.695312 -42.539062 25.46875 -43.28125 C 25.125 -44.25 24.640625 -45.054688 24.015625 -45.703125 C 22.835938 -46.847656 21.351562 -47.304688 19.5625 -47.078125 C 18.269531 -46.910156 16.992188 -46.296875 15.734375 -45.234375 C 14.640625 -44.273438 13.789062 -43.054688 13.1875 -41.578125 C 13.238281 -37.960938 13.109375 -34.4375 12.796875 -31 Z M 12.796875 -31 "/></g></g></g><g fill="#fdf9f7" fill-opacity="1"><g transform="translate(151.71098, 183.988752)"><g><path d="M 7.875 -1.015625 C 6.894531 -0.890625 5.53125 -0.953125 3.78125 -1.203125 C 2.039062 -1.460938 0.691406 -3.035156 -0.265625 -5.921875 C -0.671875 -7.410156 -0.78125 -9.546875 -0.59375 -12.328125 C -0.414062 -15.109375 -0.109375 -18.296875 0.328125 -21.890625 C 1.046875 -27.085938 1.523438 -32.546875 1.765625 -38.265625 C 2.003906 -43.992188 1.585938 -49.03125 0.515625 -53.375 C 1.921875 -53.5 3.5625 -53.453125 5.4375 -53.234375 C 7.3125 -53.015625 8.84375 -52.671875 10.03125 -52.203125 C 11.21875 -51.734375 11.878906 -51.25 12.015625 -50.75 C 13.109375 -47.207031 13.578125 -43.175781 13.421875 -38.65625 C 13.273438 -34.132812 12.914062 -29.550781 12.34375 -24.90625 C 11.21875 -15.070312 11.171875 -8.441406 12.203125 -5.015625 C 12.554688 -3.847656 12.859375 -3.09375 13.109375 -2.75 C 11.523438 -1.832031 9.78125 -1.253906 7.875 -1.015625 Z M 7.875 -1.015625 "/></g></g></g><g fill="#fdf9f7" fill-opacity="1"><g transform="translate(170.085019, 181.686245)"><g><path d="M 7.953125 -1.03125 C 6.972656 -0.90625 5.609375 -0.96875 3.859375 -1.21875 C 2.117188 -1.46875 0.769531 -3.035156 -0.1875 -5.921875 C -0.6875 -7.703125 -0.835938 -9.945312 -0.640625 -12.65625 C -0.441406 -15.363281 -0.148438 -18.25 0.234375 -21.3125 C 0.703125 -24.644531 1.023438 -27.875 1.203125 -31 C 1.390625 -34.125 1.242188 -36.488281 0.765625 -38.09375 C 3.140625 -38.269531 5.429688 -38.125 7.640625 -37.65625 C 9.847656 -37.1875 11.238281 -36.488281 11.8125 -35.5625 C 12 -35.21875 12.160156 -34.820312 12.296875 -34.375 C 12.710938 -33.082031 12.878906 -31.359375 12.796875 -29.203125 C 12.722656 -27.046875 12.5 -24.503906 12.125 -21.578125 C 11.0625 -14.160156 11.03125 -8.820312 12.03125 -5.5625 C 12.425781 -4.25 12.8125 -3.316406 13.1875 -2.765625 C 11.601562 -1.847656 9.859375 -1.269531 7.953125 -1.03125 Z M 7.84375 -43.640625 C 6.71875 -43.503906 5.523438 -43.664062 4.265625 -44.125 C 2.203125 -44.957031 0.914062 -46.179688 0.40625 -47.796875 C 0.0507812 -49.066406 0.191406 -50.5 0.828125 -52.09375 C 1.679688 -53.894531 2.882812 -55.113281 4.4375 -55.75 C 4.9375 -55.9375 5.472656 -56.066406 6.046875 -56.140625 C 7.160156 -56.285156 8.351562 -56.125 9.625 -55.65625 C 11.65625 -54.894531 12.910156 -53.710938 13.390625 -52.109375 C 13.773438 -50.816406 13.632812 -49.363281 12.96875 -47.75 C 12.144531 -45.957031 10.941406 -44.722656 9.359375 -44.046875 C 8.890625 -43.847656 8.382812 -43.710938 7.84375 -43.640625 Z M 7.84375 -43.640625 "/></g></g></g><g fill="#fdf9f7" fill-opacity="1"><g transform="translate(187.433043, 179.512312)"><g><path d="M 31 -3.890625 C 30.039062 -3.765625 28.695312 -3.828125 26.96875 -4.078125 C 25.25 -4.335938 23.90625 -5.921875 22.9375 -8.828125 C 22.46875 -10.554688 22.285156 -12.390625 22.390625 -14.328125 C 22.492188 -16.265625 22.71875 -18.347656 23.0625 -20.578125 C 23.53125 -23.410156 23.867188 -26.566406 24.078125 -30.046875 C 24.035156 -30.304688 23.992188 -30.546875 23.953125 -30.765625 C 23.628906 -31.703125 23.003906 -32.113281 22.078125 -32 C 21.785156 -31.96875 21.296875 -31.773438 20.609375 -31.421875 C 19.929688 -31.066406 18.914062 -30.082031 17.5625 -28.46875 C 16.21875 -26.863281 14.941406 -24.882812 13.734375 -22.53125 C 12.523438 -20.1875 11.695312 -17.617188 11.25 -14.828125 C 10.738281 -11.484375 10.910156 -8.429688 11.765625 -5.671875 C 12.179688 -4.285156 12.609375 -3.3125 13.046875 -2.75 C 11.429688 -1.820312 9.671875 -1.238281 7.765625 -1 C 6.785156 -0.875 5.429688 -0.9375 3.703125 -1.1875 C 1.972656 -1.445312 0.628906 -3.019531 -0.328125 -5.90625 C -0.828125 -7.6875 -0.976562 -9.929688 -0.78125 -12.640625 C -0.582031 -15.347656 -0.289062 -18.234375 0.09375 -21.296875 C 0.539062 -24.628906 0.859375 -27.859375 1.046875 -30.984375 C 1.242188 -34.109375 1.101562 -36.472656 0.625 -38.078125 C 3.007812 -38.253906 5.300781 -38.109375 7.5 -37.640625 C 9.707031 -37.171875 11.085938 -36.488281 11.640625 -35.59375 C 11.816406 -35.21875 11.972656 -34.804688 12.109375 -34.359375 C 12.484375 -33.179688 12.65625 -30.804688 12.625 -27.234375 C 15.5 -31.066406 17.878906 -33.8125 19.765625 -35.46875 C 21.660156 -37.132812 23.503906 -38.554688 25.296875 -39.734375 C 27.097656 -40.910156 28.816406 -41.601562 30.453125 -41.8125 C 30.796875 -41.851562 31.5 -41.878906 32.5625 -41.890625 C 33.632812 -41.898438 34.570312 -41.347656 35.375 -40.234375 C 35.632812 -39.804688 35.863281 -39.289062 36.0625 -38.6875 C 36.445312 -37.425781 36.582031 -35.644531 36.46875 -33.34375 C 36.351562 -31.039062 36.054688 -28.238281 35.578125 -24.9375 C 34.390625 -17.09375 34.296875 -11.507812 35.296875 -8.1875 C 35.679688 -6.9375 36.023438 -6.09375 36.328125 -5.65625 C 34.703125 -4.71875 32.925781 -4.128906 31 -3.890625 Z M 31 -3.890625 "/></g></g></g><g fill="#fdf9f7" fill-opacity="1"><g transform="translate(231.494166, 173.990878)"><g><path d="M 28.453125 -1.9375 C 26.691406 -1.707031 25.175781 -1.894531 23.90625 -2.5 C 21.570312 -3.957031 19.628906 -5.875 18.078125 -8.25 C 16.535156 -10.632812 15.242188 -12.96875 14.203125 -15.25 L 11.734375 -20.34375 C 11.171875 -12.726562 11.285156 -7.585938 12.078125 -4.921875 C 12.441406 -3.765625 12.738281 -3.035156 12.96875 -2.734375 C 11.351562 -1.816406 9.59375 -1.238281 7.6875 -1 C 6.707031 -0.875 5.351562 -0.9375 3.625 -1.1875 C 1.894531 -1.445312 0.550781 -3.019531 -0.40625 -5.90625 C -0.8125 -7.394531 -0.925781 -9.53125 -0.75 -12.3125 C -0.570312 -15.09375 -0.257812 -18.289062 0.1875 -21.90625 C 0.882812 -27.070312 1.351562 -32.519531 1.59375 -38.25 C 1.84375 -43.976562 1.441406 -49.015625 0.390625 -53.359375 C 1.773438 -53.472656 3.40625 -53.421875 5.28125 -53.203125 C 7.164062 -52.992188 8.703125 -52.65625 9.890625 -52.1875 C 11.078125 -51.71875 11.738281 -51.234375 11.875 -50.734375 C 12.90625 -47.359375 13.367188 -43.53125 13.265625 -39.25 C 13.171875 -34.976562 12.757812 -29.773438 12.03125 -23.640625 C 15.695312 -26.753906 18.273438 -29.53125 19.765625 -31.96875 C 21.253906 -34.40625 22.609375 -37.21875 23.828125 -40.40625 C 24.867188 -40.15625 26.210938 -39.363281 27.859375 -38.03125 C 29.515625 -36.695312 30.722656 -35.160156 31.484375 -33.421875 C 31.597656 -33.171875 31.691406 -32.9375 31.765625 -32.71875 C 32.160156 -31.40625 31.945312 -30.148438 31.125 -28.953125 C 28.976562 -25.921875 25.484375 -23.335938 20.640625 -21.203125 C 22.273438 -17.847656 24.664062 -14.976562 27.8125 -12.59375 C 30.96875 -10.21875 34.226562 -8.789062 37.59375 -8.3125 C 37.726562 -7.21875 37.023438 -6.066406 35.484375 -4.859375 C 33.460938 -3.242188 31.117188 -2.269531 28.453125 -1.9375 Z M 28.453125 -1.9375 "/></g></g></g><g fill="#fdf9f7" fill-opacity="1"><g transform="translate(160.888955, 250.866552)"><g><path d="M 11.78125 -1.625 C 10.394531 -1.445312 9 -1.320312 7.59375 -1.25 C 5.519531 -1.113281 3.128906 -0.878906 0.421875 -0.546875 L -1.515625 -0.296875 C -1.546875 -0.316406 -1.644531 -0.585938 -1.8125 -1.109375 C -1.882812 -1.316406 -1.957031 -1.738281 -2.03125 -2.375 C -2.113281 -3.007812 -1.921875 -3.789062 -1.453125 -4.71875 C -0.992188 -5.65625 -0.101562 -6.289062 1.21875 -6.625 L 2.34375 -6.765625 C 1.695312 -9.210938 1.492188 -12.15625 1.734375 -15.59375 C 1.972656 -19.039062 2.34375 -22.820312 2.84375 -26.9375 C 3.300781 -30.78125 3.664062 -34.5 3.9375 -38.09375 C 4.207031 -41.695312 4.109375 -45.050781 3.640625 -48.15625 C 2.023438 -47.957031 0.492188 -47.671875 -0.953125 -47.296875 C -0.929688 -47.253906 -0.988281 -47.472656 -1.125 -47.953125 C -1.207031 -48.210938 -1.289062 -48.664062 -1.375 -49.3125 C -1.46875 -49.957031 -1.269531 -50.75 -0.78125 -51.6875 C -0.289062 -52.632812 0.613281 -53.265625 1.9375 -53.578125 C 4.101562 -54.003906 5.894531 -54.304688 7.3125 -54.484375 C 8.738281 -54.660156 10.238281 -54.800781 11.8125 -54.90625 C 13.65625 -55.007812 15.117188 -55.128906 16.203125 -55.265625 C 17.347656 -55.398438 18.515625 -55.570312 19.703125 -55.78125 C 20.015625 -55.488281 20.273438 -54.992188 20.484375 -54.296875 C 21.203125 -51.898438 20.476562 -50.351562 18.3125 -49.65625 C 16.769531 -49.28125 15.410156 -49.019531 14.234375 -48.875 L 9.703125 -48.46875 C 12.773438 -47.15625 14.441406 -46.25 14.703125 -45.75 C 14.835938 -45.457031 14.96875 -45.117188 15.09375 -44.734375 C 15.582031 -43.253906 15.753906 -41.078125 15.609375 -38.203125 C 15.472656 -35.328125 15.171875 -31.914062 14.703125 -27.96875 C 14.304688 -24.625 14.003906 -21.300781 13.796875 -18 C 13.585938 -14.707031 13.6875 -11.429688 14.09375 -8.171875 C 16.132812 -8.429688 17.804688 -8.664062 19.109375 -8.875 C 19.367188 -8.550781 19.601562 -8.070312 19.8125 -7.4375 C 20.550781 -5.019531 19.851562 -3.445312 17.71875 -2.71875 C 15.769531 -2.238281 13.789062 -1.875 11.78125 -1.625 Z M 11.78125 -1.625 "/></g></g></g><g fill="#fdf9f7" fill-opacity="1"><g transform="translate(184.026647, 247.967098)"><g><path d="M 19.25 -2.296875 C 18.269531 -2.171875 16.914062 -2.234375 15.1875 -2.484375 C 13.46875 -2.742188 12.132812 -4.300781 11.1875 -7.15625 C 10.71875 -9 10.59375 -11.625 10.8125 -15.03125 C 11.03125 -18.445312 11.375 -22.179688 11.84375 -26.234375 C 12.269531 -29.890625 12.601562 -33.421875 12.84375 -36.828125 C 13.082031 -40.234375 13.023438 -43.488281 12.671875 -46.59375 L 9.328125 -46.203125 C 7.140625 -45.929688 4.9375 -45.492188 2.71875 -44.890625 C 0.507812 -44.296875 -1.078125 -43.476562 -2.046875 -42.4375 C -2.941406 -43.257812 -3.5625 -44.25 -3.90625 -45.40625 C -3.945312 -45.570312 -4.035156 -46.015625 -4.171875 -46.734375 C -4.316406 -47.453125 -4.09375 -48.335938 -3.5 -49.390625 C -2.914062 -50.441406 -2.132812 -51.273438 -1.15625 -51.890625 C 0.4375 -52.867188 3.039062 -53.582031 6.65625 -54.03125 C 10.40625 -54.5 14.507812 -54.878906 18.96875 -55.171875 C 23.4375 -55.472656 27.304688 -55.828125 30.578125 -56.234375 C 33.929688 -56.648438 36.238281 -57.148438 37.5 -57.734375 C 37.644531 -57.453125 37.835938 -56.929688 38.078125 -56.171875 C 38.585938 -54.503906 38.453125 -52.800781 37.671875 -51.0625 C 36.890625 -49.320312 35.003906 -48.132812 32.015625 -47.5 L 30.84375 -47.3125 C 28.914062 -47.070312 25.546875 -46.929688 20.734375 -46.890625 C 22.492188 -45.566406 23.484375 -44.75 23.703125 -44.4375 C 23.816406 -44.175781 23.929688 -43.867188 24.046875 -43.515625 C 24.484375 -42.054688 24.644531 -39.941406 24.53125 -37.171875 C 24.425781 -34.398438 24.144531 -31.101562 23.6875 -27.28125 C 23.320312 -24.175781 23.039062 -21.09375 22.84375 -18.03125 C 22.644531 -14.96875 22.679688 -12.175781 22.953125 -9.65625 C 23.097656 -8.488281 23.304688 -7.390625 23.578125 -6.359375 C 23.984375 -5.148438 24.304688 -4.378906 24.546875 -4.046875 C 22.921875 -3.117188 21.15625 -2.535156 19.25 -2.296875 Z M 19.25 -2.296875 "/></g></g></g></svg>